<svg width="1080" height="279" viewBox="0 0 1080 279" fill="none" xmlns="http://www.w3.org/2000/svg">
<path d="M339.6 62H410.8C413.067 62 415 62.7333 416.6 64.2C418.2 65.6667 419 67.5333 419 69.8C419 72.0667 418.2 73.9333 416.6 75.4C415 76.7333 413.067 77.4 410.8 77.4H346.4L348.2 74V124.6L346.2 122.4H401.8C404.067 122.4 406 123.133 407.6 124.6C409.2 126.067 410 127.933 410 130.2C410 132.467 409.2 134.333 407.6 135.8C406 137.133 404.067 137.8 401.8 137.8H346.8L348.2 136V187.8L347 186.4H410.8C413.067 186.4 415 187.2 416.6 188.8C418.2 190.4 419 192.2 419 194.2C419 196.467 418.2 198.333 416.6 199.8C415 201.267 413.067 202 410.8 202H339.6C337.333 202 335.4 201.2 333.8 199.6C332.333 198 331.6 196.067 331.6 193.8V70C331.6 67.7333 332.333 65.8667 333.8 64.4C335.4 62.8 337.333 62 339.6 62ZM527.086 54C529.353 54 531.219 54.8 532.686 56.4C534.286 57.8667 535.086 59.7333 535.086 62V193.8C535.086 196.067 534.286 198 532.686 199.6C531.219 201.2 529.353 202 527.086 202C524.686 202 522.753 201.2 521.286 199.6C519.819 198 519.086 196.067 519.086 193.8V174.8L522.886 173.4C522.886 176.6 521.886 180 519.886 183.6C517.886 187.067 515.153 190.333 511.686 193.4C508.219 196.467 504.086 199 499.286 201C494.619 203 489.553 204 484.086 204C475.153 204 467.019 201.667 459.686 197C452.486 192.333 446.753 185.933 442.486 177.8C438.353 169.667 436.286 160.4 436.286 150C436.286 139.467 438.353 130.133 442.486 122C446.753 113.867 452.486 107.533 459.686 103C466.886 98.3333 474.886 96 483.686 96C489.286 96 494.553 96.9333 499.486 98.8C504.419 100.667 508.686 103.2 512.286 106.4C516.019 109.6 518.953 113.133 521.086 117C523.219 120.867 524.286 124.733 524.286 128.6L519.086 127.4V62C519.086 59.7333 519.819 57.8667 521.286 56.4C522.753 54.8 524.686 54 527.086 54ZM485.886 189.2C492.553 189.2 498.419 187.533 503.486 184.2C508.686 180.733 512.686 176.067 515.486 170.2C518.419 164.2 519.886 157.467 519.886 150C519.886 142.4 518.419 135.667 515.486 129.8C512.686 123.933 508.686 119.333 503.486 116C498.419 112.533 492.553 110.8 485.886 110.8C479.353 110.8 473.486 112.533 468.286 116C463.219 119.333 459.219 123.933 456.286 129.8C453.353 135.667 451.886 142.4 451.886 150C451.886 157.333 453.353 164 456.286 170C459.219 175.867 463.219 180.533 468.286 184C473.486 187.467 479.353 189.2 485.886 189.2ZM645.263 98.6C647.663 98.6 649.596 99.4 651.063 101C652.529 102.467 653.263 104.333 653.263 106.6V161.2C653.263 174.667 649.463 185.133 641.863 192.6C634.396 199.933 623.929 203.6 610.463 203.6C597.129 203.6 586.663 199.933 579.063 192.6C571.596 185.133 567.863 174.667 567.863 161.2V106.6C567.863 104.333 568.596 102.467 570.063 101C571.663 99.4 573.596 98.6 575.863 98.6C578.263 98.6 580.196 99.4 581.663 101C583.129 102.467 583.863 104.333 583.863 106.6V161.2C583.863 170.267 586.196 177.133 590.863 181.8C595.529 186.467 602.063 188.8 610.463 188.8C619.129 188.8 625.729 186.467 630.263 181.8C634.929 177.133 637.263 170.267 637.263 161.2V106.6C637.263 104.333 637.996 102.467 639.463 101C641.063 99.4 642.996 98.6 645.263 98.6ZM695.102 202C691.635 202 688.768 200.867 686.502 198.6C684.235 196.2 683.102 193.267 683.102 189.8V66.2C683.102 62.7333 684.235 59.8667 686.502 57.6C688.768 55.2 691.635 54 695.102 54C698.568 54 701.435 55.2 703.702 57.6C705.968 59.8667 707.102 62.7333 707.102 66.2V189.8C707.102 193.267 705.968 196.2 703.702 198.6C701.435 200.867 698.568 202 695.102 202ZM758.702 95C761.768 95 764.435 96.2667 766.702 98.8C768.968 101.333 770.102 103.8 770.102 106.2C770.102 109.4 768.502 112.4 765.302 115.2L705.102 170.6L704.102 143L749.902 98.8C752.435 96.2667 755.368 95 758.702 95ZM761.702 201.8C758.235 201.8 755.302 200.467 752.902 197.8L715.902 158.6L734.102 141.8L770.102 181C772.635 183.667 773.902 186.667 773.902 190C773.902 193.467 772.502 196.333 769.702 198.6C767.035 200.733 764.368 201.8 761.702 201.8ZM806.969 202C803.502 202 800.635 200.867 798.369 198.6C796.102 196.2 794.969 193.267 794.969 189.8V107.2C794.969 103.733 796.102 100.867 798.369 98.6C800.635 96.2 803.502 95 806.969 95C810.435 95 813.302 96.2 815.569 98.6C817.835 100.867 818.969 103.733 818.969 107.2V126L817.569 112.6C819.035 109.4 820.902 106.6 823.169 104.2C825.569 101.667 828.235 99.6 831.169 98C834.102 96.2667 837.235 95 840.569 94.2C843.902 93.4 847.235 93 850.569 93C854.569 93 857.902 94.1333 860.569 96.4C863.369 98.6667 864.769 101.333 864.769 104.4C864.769 108.8 863.635 112 861.369 114C859.102 115.867 856.635 116.8 853.969 116.8C851.435 116.8 849.102 116.333 846.969 115.4C844.969 114.467 842.635 114 839.969 114C837.569 114 835.102 114.6 832.569 115.8C830.169 116.867 827.902 118.6 825.769 121C823.769 123.4 822.102 126.4 820.769 130C819.569 133.467 818.969 137.6 818.969 142.4V189.8C818.969 193.267 817.835 196.2 815.569 198.6C813.302 200.867 810.435 202 806.969 202ZM966.944 93C970.41 93 973.277 94.1333 975.544 96.4C977.81 98.6667 978.944 101.6 978.944 105.2V189.8C978.944 193.267 977.81 196.2 975.544 198.6C973.277 200.867 970.41 202 966.944 202C963.477 202 960.61 200.867 958.344 198.6C956.077 196.2 954.944 193.267 954.944 189.8V180L959.344 181.8C959.344 183.533 958.41 185.667 956.544 188.2C954.677 190.6 952.144 193 948.944 195.4C945.744 197.8 941.944 199.867 937.544 201.6C933.277 203.2 928.61 204 923.544 204C914.344 204 906.01 201.667 898.544 197C891.077 192.2 885.144 185.667 880.744 177.4C876.477 169 874.344 159.4 874.344 148.6C874.344 137.667 876.477 128.067 880.744 119.8C885.144 111.4 891.01 104.867 898.344 100.2C905.677 95.4 913.81 93 922.744 93C928.477 93 933.744 93.8667 938.544 95.6C943.344 97.3333 947.477 99.5333 950.944 102.2C954.544 104.867 957.277 107.6 959.144 110.4C961.144 113.067 962.144 115.333 962.144 117.2L954.944 119.8V105.2C954.944 101.733 956.077 98.8667 958.344 96.6C960.61 94.2 963.477 93 966.944 93ZM926.544 182C932.41 182 937.544 180.533 941.944 177.6C946.344 174.667 949.744 170.667 952.144 165.6C954.677 160.533 955.944 154.867 955.944 148.6C955.944 142.2 954.677 136.467 952.144 131.4C949.744 126.333 946.344 122.333 941.944 119.4C937.544 116.467 932.41 115 926.544 115C920.81 115 915.744 116.467 911.344 119.4C906.944 122.333 903.477 126.333 900.944 131.4C898.544 136.467 897.344 142.2 897.344 148.6C897.344 154.867 898.544 160.533 900.944 165.6C903.477 170.667 906.944 174.667 911.344 177.6C915.744 180.533 920.81 182 926.544 182ZM1059.93 54C1062.86 54 1065.73 54.4 1068.53 55.2C1071.33 56 1073.66 57.3333 1075.53 59.2C1077.4 60.9333 1078.33 63.2667 1078.33 66.2C1078.33 69.5333 1077.33 72.2 1075.33 74.2C1073.46 76.0667 1071.26 77 1068.73 77C1067.53 77 1065.73 76.7333 1063.33 76.2C1060.93 75.5333 1058.6 75.2 1056.33 75.2C1053 75.2 1050.4 75.9333 1048.53 77.4C1046.8 78.8667 1045.6 80.6 1044.93 82.6C1044.26 84.4667 1043.93 86.1333 1043.93 87.6V189.8C1043.93 193.267 1042.8 196.2 1040.53 198.6C1038.26 200.867 1035.4 202 1031.93 202C1028.46 202 1025.6 200.867 1023.33 198.6C1021.06 196.2 1019.93 193.267 1019.93 189.8V87.8C1019.93 78.3333 1023.26 70.3333 1029.93 63.8C1036.6 57.2667 1046.6 54 1059.93 54ZM1062.13 97C1065.33 97 1068 98.0667 1070.13 100.2C1072.26 102.2 1073.33 104.8 1073.33 108C1073.33 111.2 1072.26 113.867 1070.13 116C1068 118 1065.33 119 1062.13 119H1009.13C1005.93 119 1003.26 118 1001.13 116C998.996 113.867 997.93 111.2 997.93 108C997.93 104.8 998.996 102.2 1001.13 100.2C1003.26 98.0667 1005.93 97 1009.13 97H1062.13Z" fill="#004623"/>
<g clip-path="url(#clip0_17_26)">
<path d="M231.437 139.5C231.443 122.256 226.705 105.343 217.739 90.6078C208.774 75.8726 195.927 63.8829 180.602 55.9489C165.277 48.0149 148.063 44.4418 130.843 45.6202C113.622 46.7987 97.0575 52.6832 82.9585 62.6308C68.8595 72.5785 57.769 86.2063 50.8988 102.025C44.0286 117.844 41.6432 135.245 44.0033 152.327C46.3633 169.408 53.3781 185.513 64.2809 198.881C75.1837 212.249 89.5551 222.366 105.824 228.126C106.246 234.007 108.881 239.51 113.198 243.529C117.516 247.549 123.196 249.787 129.097 249.794H145.516C151.416 249.793 157.097 247.556 161.411 243.535C165.725 239.514 168.352 234.007 168.76 228.126C187.095 221.637 202.967 209.631 214.191 193.759C225.415 177.888 231.44 158.932 231.437 139.5Z" fill="#00592C"/>
<path d="M169.077 267.72C169.069 270.71 167.877 273.574 165.761 275.688C163.645 277.802 160.778 278.992 157.786 279H117.461C114.464 279 111.589 277.813 109.467 275.698C107.345 273.583 106.149 270.715 106.141 267.72C106.141 264.729 107.331 261.86 109.448 259.744C111.566 257.629 114.437 256.441 117.432 256.441H157.757C160.752 256.441 163.623 257.629 165.741 259.744C167.858 261.86 169.048 264.729 169.048 267.72H169.077Z" fill="#00592C"/>
<mask id="mask0_17_26" style="mask-type:luminance" maskUnits="userSpaceOnUse" x="43" y="11" width="190" height="239">
<path d="M231.436 139.5C231.436 87.5616 246.645 11.0207 137.306 11.0207C85.316 11.0207 43.1476 87.5616 43.1476 139.5C43.1528 158.93 49.181 177.883 60.4039 193.752C71.6268 209.621 87.4937 221.63 105.824 228.126C106.246 234.007 108.881 239.51 113.198 243.529C117.515 247.549 123.196 249.787 129.097 249.794H145.515C151.416 249.793 157.097 247.556 161.411 243.535C165.725 239.514 168.351 234.007 168.76 228.126C187.095 221.637 202.967 209.631 214.191 193.759C225.415 177.888 231.44 158.932 231.436 139.5Z" fill="white"/>
</mask>
<g mask="url(#mask0_17_26)">
<path d="M122.617 84.6265V239.463H73.1898V84.6265H65.6432V250.369H130.192V84.6265H122.617Z" fill="#E7AD4B"/>
<path d="M73.1898 90.5829V239.463H122.617V90.5829C122.617 90.5829 117.634 93 97.7016 93C77.7696 93 73.1898 90.5829 73.1898 90.5829Z" fill="#F9EAD6"/>
<path d="M122.617 217.134V239.463H73.1898V217.134H65.6432V250.369H130.192V217.134H122.617Z" fill="#6EB591"/>
<path d="M210.237 39.7379H139.841V251.319H210.237V39.7379Z" fill="#6EB591"/>
<path d="M210.237 90.9858H139.841V196.762H210.237V90.9858Z" fill="#F9EAD6"/>
<path d="M195.864 58.2689H152.198V170.605H195.864V58.2689Z" fill="#E7AD4B"/>
</g>
<path d="M252.866 161.772C251.858 161.772 250.86 161.572 249.93 161.183C248.999 160.794 248.156 160.224 247.448 159.506C246.741 158.789 246.183 157.937 245.808 157.002C245.432 156.067 245.247 155.067 245.262 154.06C245.262 152.045 246.063 150.113 247.489 148.688C248.915 147.264 250.85 146.464 252.866 146.464H265.396C267.413 146.464 269.347 147.264 270.773 148.688C272.199 150.113 273 152.045 273 154.06C273 156.075 272.199 158.007 270.773 159.432C269.347 160.856 267.413 161.657 265.396 161.657L252.866 161.772Z" fill="#00592C"/>
<path d="M141.829 20.43C141.829 22.4448 141.028 24.377 139.601 25.8016C138.175 27.2262 136.241 28.0266 134.225 28.0266C132.208 28.0266 130.274 27.2262 128.848 25.8016C127.422 24.377 126.62 22.4448 126.62 20.43V7.59653C126.62 5.58181 127.422 3.64956 128.848 2.22493C130.274 0.800306 132.208 0 134.225 0C136.241 0 138.175 0.800306 139.601 2.22493C141.028 3.64956 141.829 5.58181 141.829 7.59653V20.43Z" fill="#00592C"/>
<path d="M252.866 161.772C251.858 161.772 250.86 161.572 249.93 161.183C248.999 160.794 248.156 160.224 247.448 159.506C246.741 158.789 246.183 157.937 245.808 157.002C245.432 156.067 245.247 155.067 245.262 154.06C245.262 152.045 246.063 150.113 247.489 148.688C248.915 147.264 250.85 146.464 252.866 146.464H265.396C267.413 146.464 269.347 147.264 270.773 148.688C272.199 150.113 273 152.045 273 154.06C273 156.075 272.199 158.007 270.773 159.432C269.347 160.856 267.413 161.657 265.396 161.657L252.866 161.772Z" fill="#00592C"/>
<path d="M234.029 65.4626C233.325 66.1656 232.49 66.7232 231.571 67.1037C230.652 67.4842 229.666 67.68 228.671 67.68C227.676 67.68 226.691 67.4842 225.772 67.1037C224.853 66.7232 224.017 66.1656 223.314 65.4626C222.602 64.7613 222.037 63.9257 221.652 63.0045C221.266 62.0832 221.068 61.0946 221.068 60.0961C221.068 59.0975 221.266 58.1089 221.652 57.1877C222.037 56.2664 222.602 55.4309 223.314 54.7296L232.531 45.4066C233.957 43.985 235.889 43.1866 237.903 43.1866C239.917 43.1866 241.849 43.985 243.275 45.4066C244.698 46.8308 245.497 48.7608 245.497 50.773C245.497 52.7853 244.698 54.7153 243.275 56.1395L234.029 65.4626Z" fill="#00592C"/>
<path d="M20.1337 161.772C22.1505 161.772 24.0846 160.971 25.5106 159.547C26.9367 158.122 27.7379 156.19 27.7379 154.175C27.7379 152.16 26.9367 150.228 25.5106 148.804C24.0846 147.379 22.1505 146.579 20.1337 146.579H7.60406C5.58732 146.579 3.65318 147.379 2.22713 148.804C0.80108 150.228 6.10352e-05 152.16 6.10352e-05 154.175C6.10352e-05 156.19 0.80108 158.122 2.22713 159.547C3.65318 160.971 5.58732 161.772 7.60406 161.772H20.1337Z" fill="#00592C"/>
<path d="M38.9423 65.4626C40.368 66.8841 42.2999 67.6825 44.3141 67.6825C46.3284 67.6825 48.2605 66.8841 49.6862 65.4626C51.1091 64.0384 51.9081 62.1083 51.9081 60.0961C51.9081 58.0838 51.1091 56.1538 49.6862 54.7296L40.469 45.4066C39.0434 43.985 37.1114 43.1866 35.0972 43.1866C33.0829 43.1866 31.1508 43.985 29.7251 45.4066C28.3022 46.8308 27.5032 48.7608 27.5032 50.773C27.5032 52.7853 28.3022 54.7153 29.7251 56.1395L38.9423 65.4626Z" fill="#00592C"/>
</g>
<defs>
<clipPath id="clip0_17_26">
<rect width="273" height="279" fill="white"/>
</clipPath>
</defs>
</svg>
