<svg width="672" height="697" viewBox="0 0 672 697" fill="none" xmlns="http://www.w3.org/2000/svg">
<g clip-path="url(#clip0_17_73)">
<path d="M479.083 223.184C479.094 195.69 471.529 168.722 457.215 145.228C442.901 121.734 422.39 102.617 397.922 89.9665C373.455 77.3162 345.972 71.6191 318.479 73.498C290.985 75.377 264.538 84.7596 242.028 100.621C219.518 116.481 201.811 138.21 190.843 163.432C179.874 188.655 176.066 216.4 179.834 243.635C183.602 270.871 194.801 296.549 212.208 317.864C229.615 339.178 252.56 355.309 278.535 364.494C279.209 373.87 283.415 382.644 290.308 389.053C297.201 395.462 306.27 399.03 315.692 399.041H341.905C351.325 399.04 360.395 395.474 367.283 389.062C374.171 382.65 378.364 373.87 379.016 364.494C408.289 354.147 433.629 335.003 451.549 309.698C469.469 284.392 479.089 254.168 479.083 223.184Z" fill="#00592C"/>
<path d="M379.522 427.624C379.51 432.39 377.606 436.957 374.228 440.328C370.85 443.698 366.272 445.597 361.495 445.609H297.114C292.328 445.609 287.738 443.715 284.35 440.344C280.962 436.972 279.053 432.398 279.041 427.624C279.041 422.854 280.94 418.279 284.321 414.907C287.701 411.534 292.287 409.639 297.068 409.639H361.449C366.23 409.639 370.815 411.534 374.196 414.907C377.577 418.279 379.476 422.854 379.476 427.624H379.522Z" fill="#00592C"/>
<mask id="mask0_17_73" style="mask-type:luminance" maskUnits="userSpaceOnUse" x="178" y="18" width="303" height="382">
<path d="M479.083 223.184C479.083 140.371 503.364 18.3309 328.798 18.3309C245.792 18.3309 178.467 140.371 178.467 223.184C178.475 254.165 188.1 284.383 206.018 309.686C223.936 334.989 249.269 354.135 278.535 364.493C279.208 373.87 283.414 382.644 290.307 389.053C297.2 395.462 306.269 399.03 315.692 399.041H341.904C351.325 399.04 360.395 395.474 367.283 389.062C374.17 382.65 378.363 373.87 379.016 364.493C408.289 354.146 433.629 335.003 451.549 309.698C469.469 284.392 479.088 254.168 479.083 223.184Z" fill="white"/>
</mask>
<g mask="url(#mask0_17_73)">
<path d="M305.345 135.691V382.57H226.432V135.691H214.383V399.958H317.439V135.691H305.345Z" fill="#E7AD4B"/>
<path d="M226.432 145.188V382.57H305.345V145.188C305.345 145.188 297.39 149.042 265.567 149.042C233.744 149.042 226.432 145.188 226.432 145.188Z" fill="#F9EAD6"/>
<path d="M305.345 346.967V382.57H226.432V346.967H214.383V399.958H317.439V346.967H305.345Z" fill="#6EB591"/>
<path d="M445.237 64.1189H332.845V401.472H445.237V64.1189Z" fill="#6EB591"/>
<path d="M445.237 145.831H332.845V314.485H445.237V145.831Z" fill="#F9EAD6"/>
<path d="M422.289 93.6654H352.573V272.78H422.289V93.6654Z" fill="#E7AD4B"/>
</g>
<path d="M513.298 258.695C511.688 258.695 510.094 258.376 508.609 257.756C507.124 257.135 505.777 256.227 504.647 255.083C503.518 253.938 502.627 252.581 502.028 251.091C501.429 249.6 501.133 248.005 501.157 246.399C501.157 243.187 502.436 240.106 504.713 237.834C506.99 235.563 510.078 234.287 513.298 234.287H533.302C536.522 234.287 539.61 235.563 541.887 237.834C544.163 240.106 545.442 243.187 545.442 246.399C545.442 249.611 544.163 252.692 541.887 254.964C539.61 257.235 536.522 258.511 533.302 258.511L513.298 258.695Z" fill="#00592C"/>
<path d="M336.019 33.3337C336.019 36.5461 334.74 39.6269 332.463 41.8983C330.186 44.1698 327.098 45.4459 323.878 45.4459C320.658 45.4459 317.57 44.1698 315.293 41.8983C313.017 39.6269 311.738 36.5461 311.738 33.3337V12.8714C311.738 9.65903 313.017 6.57817 315.293 4.30668C317.57 2.0352 320.658 0.759155 323.878 0.759155C327.098 0.759155 330.186 2.0352 332.463 4.30668C334.74 6.57817 336.019 9.65903 336.019 12.8714V33.3337Z" fill="#00592C"/>
<path d="M513.298 258.695C511.688 258.695 510.094 258.376 508.609 257.756C507.124 257.135 505.777 256.227 504.647 255.083C503.518 253.938 502.627 252.581 502.028 251.091C501.429 249.6 501.133 248.005 501.157 246.399C501.157 243.187 502.436 240.106 504.713 237.834C506.99 235.563 510.078 234.287 513.298 234.287H533.302C536.522 234.287 539.61 235.563 541.887 237.834C544.163 240.106 545.442 243.187 545.442 246.399C545.442 249.611 544.163 252.692 541.887 254.964C539.61 257.235 536.522 258.511 533.302 258.511L513.298 258.695Z" fill="#00592C"/>
<path d="M483.222 105.136C482.099 106.256 480.765 107.146 479.298 107.752C477.83 108.359 476.257 108.671 474.669 108.671C473.08 108.671 471.507 108.359 470.039 107.752C468.572 107.146 467.238 106.256 466.115 105.136C464.979 104.017 464.077 102.685 463.462 101.216C462.846 99.7473 462.529 98.171 462.529 96.5789C462.529 94.9868 462.846 93.4105 463.462 91.9417C464.077 90.4728 464.979 89.1405 466.115 88.0223L480.831 73.1573C483.107 70.8908 486.191 69.6178 489.407 69.6178C492.623 69.6178 495.708 70.8908 497.984 73.1573C500.256 75.4282 501.532 78.5055 501.532 81.7139C501.532 84.9223 500.256 87.9996 497.984 90.2705L483.222 105.136Z" fill="#00592C"/>
<path d="M141.724 258.695C144.944 258.695 148.032 257.419 150.309 255.147C152.586 252.876 153.865 249.795 153.865 246.583C153.865 243.37 152.586 240.289 150.309 238.018C148.032 235.746 144.944 234.47 141.724 234.47H121.72C118.5 234.47 115.412 235.746 113.135 238.018C110.858 240.289 109.58 243.37 109.58 246.583C109.58 249.795 110.858 252.876 113.135 255.147C115.412 257.419 118.5 258.695 121.72 258.695H141.724Z" fill="#00592C"/>
<path d="M171.754 105.136C174.03 107.402 177.114 108.675 180.33 108.675C183.546 108.675 186.631 107.402 188.907 105.136C191.179 102.865 192.455 99.7873 192.455 96.5789C192.455 93.3705 191.179 90.2932 188.907 88.0223L174.191 73.1573C171.915 70.8908 168.831 69.6178 165.615 69.6178C162.399 69.6178 159.314 70.8908 157.038 73.1573C154.766 75.4282 153.49 78.5055 153.49 81.7139C153.49 84.9223 154.766 87.9996 157.038 90.2705L171.754 105.136Z" fill="#00592C"/>
</g>
<path d="M22.6707 529.392H85.0575C87.0436 529.392 88.7376 530.035 90.1396 531.32C91.5415 532.605 92.2425 534.24 92.2425 536.227C92.2425 538.213 91.5415 539.848 90.1396 541.133C88.7376 542.302 87.0436 542.886 85.0575 542.886H28.629L30.2062 539.907V584.243L28.4538 582.316H77.1715C79.1576 582.316 80.8517 582.958 82.2536 584.243C83.6556 585.529 84.3565 587.164 84.3565 589.15C84.3565 591.136 83.6556 592.772 82.2536 594.057C80.8517 595.225 79.1576 595.809 77.1715 595.809H28.9795L30.2062 594.232V639.62L29.1547 638.394H85.0575C87.0436 638.394 88.7376 639.095 90.1396 640.497C91.5415 641.899 92.2425 643.476 92.2425 645.228C92.2425 647.214 91.5415 648.85 90.1396 650.135C88.7376 651.42 87.0436 652.063 85.0575 652.063H22.6707C20.6846 652.063 18.9906 651.362 17.5886 649.96C16.3035 648.558 15.661 646.864 15.661 644.878V536.402C15.661 534.416 16.3035 532.78 17.5886 531.495C18.9906 530.093 20.6846 529.392 22.6707 529.392ZM186.949 522.382C188.936 522.382 190.571 523.083 191.856 524.485C193.258 525.77 193.959 527.406 193.959 529.392V644.878C193.959 646.864 193.258 648.558 191.856 649.96C190.571 651.362 188.936 652.063 186.949 652.063C184.847 652.063 183.153 651.362 181.867 649.96C180.582 648.558 179.94 646.864 179.94 644.878V628.23L183.269 627.003C183.269 629.807 182.393 632.786 180.641 635.94C178.888 638.978 176.493 641.84 173.456 644.527C170.418 647.214 166.796 649.434 162.591 651.187C158.502 652.939 154.062 653.815 149.272 653.815C141.444 653.815 134.318 651.771 127.892 647.682C121.584 643.593 116.56 637.985 112.821 630.858C109.2 623.732 107.389 615.612 107.389 606.499C107.389 597.27 109.2 589.092 112.821 581.965C116.56 574.839 121.584 569.289 127.892 565.317C134.201 561.228 141.211 559.184 148.922 559.184C153.828 559.184 158.443 560.001 162.766 561.637C167.089 563.273 170.827 565.492 173.981 568.296C177.253 571.1 179.823 574.196 181.692 577.584C183.561 580.972 184.496 584.36 184.496 587.748L179.94 586.697V529.392C179.94 527.406 180.582 525.77 181.867 524.485C183.153 523.083 184.847 522.382 186.949 522.382ZM150.849 640.847C156.691 640.847 161.831 639.387 166.271 636.466C170.827 633.428 174.332 629.339 176.785 624.199C179.356 618.942 180.641 613.042 180.641 606.499C180.641 599.84 179.356 593.94 176.785 588.8C174.332 583.659 170.827 579.629 166.271 576.708C161.831 573.67 156.691 572.152 150.849 572.152C145.125 572.152 139.984 573.67 135.428 576.708C130.988 579.629 127.483 583.659 124.913 588.8C122.343 593.94 121.058 599.84 121.058 606.499C121.058 612.925 122.343 618.766 124.913 624.024C127.483 629.164 130.988 633.253 135.428 636.291C139.984 639.328 145.125 640.847 150.849 640.847ZM290.498 561.462C292.601 561.462 294.295 562.163 295.58 563.565C296.865 564.85 297.508 566.485 297.508 568.471V616.313C297.508 628.113 294.178 637.284 287.519 643.826C280.976 650.252 271.805 653.465 260.006 653.465C248.323 653.465 239.152 650.252 232.492 643.826C225.95 637.284 222.679 628.113 222.679 616.313V568.471C222.679 566.485 223.321 564.85 224.606 563.565C226.008 562.163 227.702 561.462 229.688 561.462C231.791 561.462 233.485 562.163 234.77 563.565C236.056 564.85 236.698 566.485 236.698 568.471V616.313C236.698 624.257 238.743 630.274 242.832 634.363C246.921 638.452 252.645 640.497 260.006 640.497C267.6 640.497 273.383 638.452 277.355 634.363C281.444 630.274 283.488 624.257 283.488 616.313V568.471C283.488 566.485 284.131 564.85 285.416 563.565C286.818 562.163 288.512 561.462 290.498 561.462ZM334.168 652.063C331.13 652.063 328.619 651.07 326.633 649.084C324.646 646.981 323.653 644.41 323.653 641.373V533.072C323.653 530.035 324.646 527.523 326.633 525.537C328.619 523.434 331.13 522.382 334.168 522.382C337.206 522.382 339.717 523.434 341.703 525.537C343.69 527.523 344.683 530.035 344.683 533.072V641.373C344.683 644.41 343.69 646.981 341.703 649.084C339.717 651.07 337.206 652.063 334.168 652.063ZM389.896 558.307C392.583 558.307 394.919 559.417 396.905 561.637C398.891 563.857 399.884 566.018 399.884 568.121C399.884 570.925 398.482 573.554 395.679 576.007L342.93 624.549L342.054 600.366L382.185 561.637C384.405 559.417 386.975 558.307 389.896 558.307ZM392.524 651.888C389.487 651.888 386.916 650.719 384.813 648.383L352.393 614.035L368.341 599.314L399.884 633.662C402.104 635.999 403.214 638.627 403.214 641.548C403.214 644.586 401.987 647.098 399.534 649.084C397.197 650.953 394.861 651.888 392.524 651.888ZM432.188 652.063C429.151 652.063 426.639 651.07 424.653 649.084C422.667 646.981 421.674 644.41 421.674 641.373V568.997C421.674 565.96 422.667 563.448 424.653 561.462C426.639 559.359 429.151 558.307 432.188 558.307C435.226 558.307 437.738 559.359 439.724 561.462C441.71 563.448 442.703 565.96 442.703 568.997V585.47L441.476 573.729C442.761 570.925 444.397 568.471 446.383 566.369C448.486 564.149 450.822 562.338 453.393 560.936C455.963 559.417 458.708 558.307 461.629 557.606C464.55 556.905 467.471 556.555 470.391 556.555C473.896 556.555 476.817 557.548 479.153 559.534C481.607 561.52 482.834 563.857 482.834 566.544C482.834 570.399 481.841 573.203 479.854 574.955C477.868 576.591 475.707 577.409 473.37 577.409C471.151 577.409 469.106 577 467.237 576.182C465.484 575.364 463.44 574.955 461.103 574.955C459 574.955 456.839 575.481 454.619 576.533C452.516 577.467 450.53 578.986 448.661 581.089C446.909 583.192 445.448 585.821 444.28 588.975C443.228 592.013 442.703 595.634 442.703 599.84V641.373C442.703 644.41 441.71 646.981 439.724 649.084C437.738 651.07 435.226 652.063 432.188 652.063ZM572.361 556.555C575.399 556.555 577.911 557.548 579.897 559.534C581.883 561.52 582.876 564.09 582.876 567.245V641.373C582.876 644.41 581.883 646.981 579.897 649.084C577.911 651.07 575.399 652.063 572.361 652.063C569.324 652.063 566.812 651.07 564.826 649.084C562.84 646.981 561.847 644.41 561.847 641.373V632.786L565.702 634.363C565.702 635.882 564.884 637.751 563.249 639.971C561.613 642.074 559.393 644.177 556.589 646.28C553.785 648.383 550.456 650.193 546.6 651.712C542.862 653.114 538.773 653.815 534.333 653.815C526.272 653.815 518.97 651.771 512.428 647.682C505.885 643.476 500.687 637.751 496.831 630.508C493.093 623.148 491.223 614.736 491.223 605.273C491.223 595.693 493.093 587.281 496.831 580.038C500.687 572.677 505.827 566.953 512.253 562.864C518.678 558.658 525.805 556.555 533.632 556.555C538.656 556.555 543.271 557.314 547.477 558.833C551.683 560.352 555.304 562.279 558.342 564.616C561.496 566.953 563.891 569.348 565.527 571.801C567.279 574.138 568.155 576.124 568.155 577.759L561.847 580.038V567.245C561.847 564.207 562.84 561.695 564.826 559.709C566.812 557.606 569.324 556.555 572.361 556.555ZM536.962 634.538C542.103 634.538 546.6 633.253 550.456 630.683C554.311 628.113 557.29 624.608 559.393 620.168C561.613 615.729 562.723 610.764 562.723 605.273C562.723 599.665 561.613 594.641 559.393 590.202C557.29 585.762 554.311 582.257 550.456 579.687C546.6 577.117 542.103 575.832 536.962 575.832C531.938 575.832 527.499 577.117 523.644 579.687C519.788 582.257 516.751 585.762 514.531 590.202C512.428 594.641 511.376 599.665 511.376 605.273C511.376 610.764 512.428 615.729 514.531 620.168C516.751 624.608 519.788 628.113 523.644 630.683C527.499 633.253 531.938 634.538 536.962 634.538ZM653.837 522.382C656.408 522.382 658.919 522.733 661.373 523.434C663.826 524.135 665.871 525.303 667.506 526.939C669.142 528.457 669.96 530.502 669.96 533.072C669.96 535.993 669.084 538.329 667.331 540.082C665.696 541.718 663.768 542.535 661.548 542.535C660.497 542.535 658.919 542.302 656.817 541.834C654.714 541.25 652.669 540.958 650.683 540.958C647.762 540.958 645.484 541.601 643.848 542.886C642.33 544.171 641.278 545.69 640.694 547.442C640.11 549.078 639.818 550.538 639.818 551.823V641.373C639.818 644.41 638.825 646.981 636.839 649.084C634.853 651.07 632.341 652.063 629.303 652.063C626.266 652.063 623.754 651.07 621.768 649.084C619.782 646.981 618.789 644.41 618.789 641.373V551.999C618.789 543.704 621.709 536.694 627.551 530.969C633.392 525.245 642.154 522.382 653.837 522.382ZM655.765 560.06C658.569 560.06 660.906 560.994 662.775 562.864C664.644 564.616 665.579 566.894 665.579 569.698C665.579 572.502 664.644 574.839 662.775 576.708C660.906 578.46 658.569 579.337 655.765 579.337H609.325C606.522 579.337 604.185 578.46 602.316 576.708C600.446 574.839 599.512 572.502 599.512 569.698C599.512 566.894 600.446 564.616 602.316 562.864C604.185 560.994 606.522 560.06 609.325 560.06H655.765Z" fill="#004623"/>
<defs>
<clipPath id="clip0_17_73">
<rect width="435.863" height="444.85" fill="white" transform="translate(109.58 0.759155)"/>
</clipPath>
</defs>
</svg>
